<?xml version="1.0" encoding="utf-8"?>
<svg viewBox="14.5258 16.6001 476.6563 152.5234" width="476.656" height="152.523" xmlns="http://www.w3.org/2000/svg">
  <defs>
    <clipPath id="clip9">
      <path d="M 444 119 L 476.648438 119 L 476.648438 152 L 444 152 Z M 444 119 "/>
    </clipPath>
  </defs>
  <g id="surface1" transform="matrix(1, 0, 0, 1, 14.525776863098145, 16.600105285644524)">
    <path style=" stroke:none;fill-rule:nonzero;fill:rgb(0%,16.862488%,36.077881%);fill-opacity:1;" d="M 290.246094 89.957031 C 287.96875 88.027344 279.390625 80.246094 276.816406 77.90625 L 276.4375 77.5625 C 279.144531 72.113281 280.664063 65.996094 280.664063 59.527344 C 280.664063 50.21875 277.519531 41.636719 272.222656 34.746094 C 272.757813 34.230469 273.304688 33.714844 273.5625 33.464844 C 275.320313 35.316406 279.371094 39.59375 279.371094 39.59375 L 297.585938 44.835938 L 293.386719 27.210938 C 293.386719 27.210938 288.691406 22.515625 286.835938 20.660156 C 287.515625 19.898438 287.90625 19.054688 287.90625 18.121094 C 287.90625 18.121094 287.90625 18.117188 287.90625 18.117188 C 287.902344 16.027344 286.210938 14.367188 283.867188 12.066406 L 282.738281 10.953125 C 281.554688 9.769531 280.324219 9.546875 279.503906 9.570313 C 278.289063 9.601563 277.371094 10.148438 276.78125 10.605469 C 274.8125 8.640625 267.21875 1.042969 267.21875 1.042969 L 265.808594 2.304688 L 254.019531 12.835938 C 254.019531 12.835938 261.328125 20.550781 263.359375 22.691406 C 262.894531 23.113281 261.941406 23.972656 261.117188 24.71875 C 254.679688 20.726563 247.0625 18.410156 238.894531 18.410156 C 230.855469 18.410156 223.351563 20.648438 216.980469 24.523438 C 215.871094 23.558594 214.429688 22.304688 213.636719 21.617188 C 216.542969 19.738281 219.578125 18.101563 222.792969 16.925781 L 225.488281 15.9375 L 211.941406 0 L 210.5625 0.648438 C 197.335938 6.828125 186.414063 17.335938 179.8125 30.226563 L 179.015625 31.777344 L 195.628906 43.40625 L 196.617188 41.199219 C 198.101563 37.894531 200.085938 34.816406 202.351563 31.921875 C 203.097656 32.664063 204.394531 33.964844 205.394531 34.964844 C 200.199219 41.816406 197.121094 50.316406 197.121094 59.527344 C 197.121094 66.359375 198.824219 72.800781 201.824219 78.472656 L 201.496094 78.761719 L 188.390625 90.410156 C 187.011719 91.511719 185.046875 94.316406 186.851563 97.667969 C 188.4375 100.609375 190.921875 103.265625 194.238281 105.5625 C 195.976563 106.765625 197.46875 106.789063 198.410156 106.597656 C 199.964844 106.285156 200.859375 105.308594 201.234375 104.816406 C 201.378906 104.671875 210.320313 95.878906 213.832031 92.421875 C 220.8125 97.585938 229.488281 100.644531 238.894531 100.644531 C 248.636719 100.644531 257.589844 97.351563 264.695313 91.851563 L 278.128906 104.859375 L 278.328125 104.976563 C 278.519531 105.09375 283.101563 107.738281 288.285156 101.734375 C 290.929688 98.675781 292.785156 96.320313 292.59375 93.871094 C 292.449219 92.019531 291.183594 90.75 290.246094 89.957031 "/>
    <path style=" stroke:none;fill-rule:nonzero;fill:rgb(0%,16.862488%,36.077881%);fill-opacity:1;" d="M 23.402344 124.835938 L 19.949219 124.835938 L 19.949219 119.589844 L 35.773438 119.589844 L 35.773438 124.835938 L 32.609375 124.835938 L 32.609375 146.734375 L 35.773438 146.734375 L 35.773438 151.980469 L 19.949219 151.980469 L 19.949219 146.734375 L 23.402344 146.734375 L 23.402344 138.226563 L 12.371094 138.226563 L 12.371094 146.734375 L 15.824219 146.734375 L 15.824219 151.980469 L 0 151.980469 L 0 146.734375 L 3.164063 146.734375 L 3.164063 124.835938 L 0 124.835938 L 0 119.589844 L 15.824219 119.589844 L 15.824219 124.835938 L 12.371094 124.835938 L 12.371094 132.980469 L 23.402344 132.980469 L 23.402344 124.835938 "/>
    <path style=" stroke:none;fill-rule:nonzero;fill:rgb(0%,16.862488%,36.077881%);fill-opacity:1;" d="M 60.421875 142.707031 L 49.152344 142.707031 L 47.714844 146.734375 L 51.40625 146.734375 L 51.40625 151.980469 L 37.597656 151.980469 L 37.597656 146.734375 L 39.660156 146.734375 L 50.257813 119.589844 L 60.902344 119.589844 L 71.40625 146.734375 L 73.371094 146.734375 L 73.371094 151.980469 L 58.265625 151.980469 L 58.265625 146.734375 L 61.8125 146.734375 L 60.421875 142.707031 M 54.859375 126.285156 L 54.765625 126.285156 L 51.167969 137.730469 L 58.410156 137.730469 L 54.859375 126.285156 "/>
    <path style=" stroke:none;fill-rule:nonzero;fill:rgb(0%,16.862488%,36.077881%);fill-opacity:1;" d="M 96.007813 124.835938 L 92.359375 124.835938 L 92.359375 119.589844 L 106.554688 119.589844 L 106.554688 124.835938 L 104.351563 124.835938 L 93.558594 151.980469 L 83.539063 151.980469 L 73.082031 124.835938 L 70.78125 124.835938 L 70.78125 119.589844 L 86.464844 119.589844 L 86.464844 124.835938 L 82.675781 124.835938 L 89.195313 144.742188 L 89.292969 144.742188 L 96.007813 124.835938 "/>
    <path style=" stroke:none;fill-rule:nonzero;fill:rgb(0%,16.862488%,36.077881%);fill-opacity:1;" d="M 123.4375 129.542969 L 128.996094 129.542969 L 128.996094 141.394531 L 123.4375 141.394531 L 123.4375 137.957031 L 120.175781 137.957031 L 120.175781 146.734375 L 130.867188 146.734375 L 130.867188 141.347656 L 137.964844 141.347656 L 137.964844 151.980469 L 108.378906 151.980469 L 108.378906 146.734375 L 111.542969 146.734375 L 111.542969 124.835938 L 108.378906 124.835938 L 108.378906 119.589844 L 137.964844 119.589844 L 137.964844 129.675781 L 130.867188 129.675781 L 130.867188 124.835938 L 120.175781 124.835938 L 120.175781 132.980469 L 123.4375 132.980469 L 123.4375 129.542969 "/>
    <path style=" stroke:none;fill-rule:nonzero;fill:rgb(0%,16.862488%,36.077881%);fill-opacity:1;" d="M 159.304688 142.210938 C 158.539063 140.039063 158.058594 138.816406 155.371094 138.816406 L 153.167969 138.816406 L 153.167969 146.734375 L 156.523438 146.734375 L 156.523438 151.980469 L 141.082031 151.980469 L 141.082031 146.734375 L 144.246094 146.734375 L 144.246094 124.835938 L 141.082031 124.835938 L 141.082031 119.589844 L 159.738281 119.589844 C 166.5 119.589844 170.191406 122.121094 170.191406 128.09375 C 170.191406 133.207031 167.507813 135.46875 162.375 136.238281 L 162.375 136.417969 C 166.210938 136.734375 167.507813 137.503906 168.5625 141.03125 L 170.238281 146.734375 L 173.070313 146.734375 L 173.070313 151.980469 L 162.664063 151.980469 L 159.304688 142.210938 M 155.804688 133.839844 C 156.765625 133.839844 161.273438 133.839844 161.273438 129.042969 C 161.273438 126.011719 159.59375 124.835938 156.621094 124.835938 L 153.167969 124.835938 L 153.167969 133.839844 L 155.804688 133.839844 "/>
    <path style=" stroke:none;fill-rule:nonzero;fill:rgb(0%,16.862488%,36.077881%);fill-opacity:1;" d="M 211.210938 132.527344 L 222.765625 132.527344 L 222.765625 137.140625 L 219.554688 137.140625 C 219.027344 140.398438 218.164063 142.390625 216.148438 145.058594 L 217.925781 147.003906 L 222.765625 147.003906 L 222.765625 151.980469 L 212.601563 151.980469 L 210.730469 150.082031 C 207.902344 151.980469 204.351563 152.523438 200.898438 152.523438 C 191.980469 152.523438 189.007813 147.457031 189.007813 143.113281 C 189.007813 138.769531 191.5 135.695313 195.433594 133.75 C 193.5625 131.804688 191.882813 129.542969 191.882813 126.917969 C 191.882813 121.445313 196.871094 119.046875 202.097656 119.046875 C 208.859375 119.046875 211.738281 122.621094 211.738281 126.554688 C 211.738281 130.402344 209.386719 132.707031 206.269531 134.746094 L 211.691406 140.535156 C 212.3125 140.171875 213.128906 137.957031 213.175781 137.140625 L 211.210938 137.140625 L 211.210938 132.527344 M 200.46875 138.859375 C 198.839844 139.945313 197.640625 141.621094 197.640625 143.339844 C 197.640625 146.101563 199.652344 147.546875 202.480469 147.546875 C 204.734375 147.546875 206.128906 146.597656 206.75 145.964844 L 200.46875 138.859375 M 201.859375 123.390625 C 200.421875 123.390625 198.980469 124.203125 198.980469 125.695313 C 198.980469 126.964844 200.085938 128.09375 201.617188 129.992188 C 203.25 128.636719 204.640625 127.640625 204.640625 126.011719 C 204.640625 124.382813 203.585938 123.390625 201.859375 123.390625 "/>
    <path style=" stroke:none;fill-rule:nonzero;fill:rgb(0%,16.862488%,36.077881%);fill-opacity:1;" d="M 243.164063 124.835938 L 240 124.835938 L 240 119.589844 L 258.558594 119.589844 C 264.265625 119.589844 268.964844 121.445313 268.964844 127.460938 C 268.964844 131.667969 266.613281 134.699219 262.105469 135.378906 L 262.105469 135.46875 C 266.902344 135.785156 269.539063 138.726563 269.539063 143.203125 C 269.539063 149.898438 264.503906 151.980469 257.984375 151.980469 L 240 151.980469 L 240 146.734375 L 243.164063 146.734375 L 243.164063 124.835938 M 254.769531 132.980469 C 258.175781 132.980469 260.046875 131.941406 260.046875 128.5 C 260.046875 125.199219 257.839844 124.566406 254.769531 124.566406 L 251.796875 124.566406 L 251.796875 132.980469 L 254.769531 132.980469 M 255.394531 147.003906 C 258.414063 147.003906 260.621094 145.648438 260.621094 142.617188 C 260.621094 139.179688 258.941406 137.957031 255.394531 137.957031 L 251.796875 137.957031 L 251.796875 147.003906 L 255.394531 147.003906 "/>
    <path style=" stroke:none;fill-rule:nonzero;fill:rgb(0%,16.862488%,36.077881%);fill-opacity:1;" d="M 290.160156 152.523438 C 278.988281 152.523438 273.183594 145.511719 273.183594 135.785156 C 273.183594 126.058594 278.988281 119.046875 290.160156 119.046875 C 301.335938 119.046875 307.136719 126.058594 307.136719 135.785156 C 307.136719 145.511719 301.335938 152.523438 290.160156 152.523438 M 290.160156 124.292969 C 283.734375 124.292969 282.777344 131.441406 282.777344 135.785156 C 282.777344 140.128906 283.734375 147.277344 290.160156 147.277344 C 296.585938 147.277344 297.546875 140.128906 297.546875 135.785156 C 297.546875 131.441406 296.585938 124.292969 290.160156 124.292969 "/>
    <path style=" stroke:none;fill-rule:nonzero;fill:rgb(0%,16.862488%,36.077881%);fill-opacity:1;" d="M 324.925781 129.542969 L 330.492188 129.542969 L 330.492188 141.394531 L 324.925781 141.394531 L 324.925781 137.957031 L 321.664063 137.957031 L 321.664063 146.734375 L 332.359375 146.734375 L 332.359375 141.347656 L 339.457031 141.347656 L 339.457031 151.980469 L 309.871094 151.980469 L 309.871094 146.734375 L 313.035156 146.734375 L 313.035156 124.835938 L 309.871094 124.835938 L 309.871094 119.589844 L 339.457031 119.589844 L 339.457031 129.675781 L 332.359375 129.675781 L 332.359375 124.835938 L 321.664063 124.835938 L 321.664063 132.980469 L 324.925781 132.980469 L 324.925781 129.542969 "/>
    <path style=" stroke:none;fill-rule:nonzero;fill:rgb(0%,16.862488%,36.077881%);fill-opacity:1;" d="M 366.742188 119.589844 L 374.128906 119.589844 L 374.128906 131.441406 L 366.074219 131.441406 C 366.023438 129.496094 365.546875 127.730469 364.488281 126.421875 C 363.433594 125.109375 361.851563 124.292969 359.597656 124.292969 C 353.699219 124.292969 352.644531 131.578125 352.644531 136.238281 C 352.644531 140.488281 353.507813 147.277344 359.597656 147.277344 C 364.585938 147.277344 365.160156 143.25 365.402344 141.257813 L 374.320313 141.257813 C 373.984375 149.085938 367.464844 152.523438 360.175781 152.523438 C 347.417969 152.523438 343.054688 144.652344 343.054688 135.558594 C 343.054688 126.511719 347.753906 119.046875 358.0625 119.046875 C 363.484375 119.046875 365.6875 121.578125 366.742188 122.753906 L 366.742188 119.589844 "/>
    <path style=" stroke:none;fill-rule:nonzero;fill:rgb(0%,16.862488%,36.077881%);fill-opacity:1;" d="M 397.628906 124.835938 L 395.324219 124.835938 L 395.324219 119.589844 L 409.757813 119.589844 L 409.757813 124.835938 L 407.21875 124.835938 L 397.867188 134.5625 L 408.320313 146.734375 L 410.335938 146.734375 L 410.335938 151.980469 L 395.324219 151.980469 L 395.324219 146.734375 L 397.914063 146.734375 L 388.945313 135.605469 L 388.851563 135.605469 L 388.851563 146.734375 L 392.015625 146.734375 L 392.015625 151.980469 L 377.054688 151.980469 L 377.054688 146.734375 L 380.21875 146.734375 L 380.21875 124.835938 L 377.054688 124.835938 L 377.054688 119.589844 L 392.015625 119.589844 L 392.015625 124.835938 L 388.851563 124.835938 L 388.851563 134.246094 L 397.628906 124.835938 "/>
    <path style=" stroke:none;fill-rule:nonzero;fill:rgb(0%,16.862488%,36.077881%);fill-opacity:1;" d="M 427.023438 129.542969 L 432.585938 129.542969 L 432.585938 141.394531 L 427.023438 141.394531 L 427.023438 137.957031 L 423.761719 137.957031 L 423.761719 146.734375 L 434.453125 146.734375 L 434.453125 141.347656 L 441.550781 141.347656 L 441.550781 151.980469 L 411.964844 151.980469 L 411.964844 146.734375 L 415.128906 146.734375 L 415.128906 124.835938 L 411.964844 124.835938 L 411.964844 119.589844 L 441.550781 119.589844 L 441.550781 129.675781 L 434.453125 129.675781 L 434.453125 124.835938 L 423.761719 124.835938 L 423.761719 132.980469 L 427.023438 132.980469 L 427.023438 129.542969 "/>
    <g clip-path="url(#clip9)" clip-rule="nonzero">
      <path style=" stroke:none;fill-rule:nonzero;fill:rgb(0%,16.862488%,36.077881%);fill-opacity:1;" d="M 462.890625 142.210938 C 462.125 140.039063 461.644531 138.816406 458.960938 138.816406 L 456.753906 138.816406 L 456.753906 146.734375 L 460.109375 146.734375 L 460.109375 151.980469 L 444.667969 151.980469 L 444.667969 146.734375 L 447.835938 146.734375 L 447.835938 124.835938 L 444.667969 124.835938 L 444.667969 119.589844 L 463.324219 119.589844 C 470.085938 119.589844 473.777344 122.121094 473.777344 128.09375 C 473.777344 133.207031 471.09375 135.46875 465.960938 136.238281 L 465.960938 136.417969 C 469.796875 136.734375 471.09375 137.503906 472.148438 141.03125 L 473.824219 146.734375 L 476.65625 146.734375 L 476.65625 151.980469 L 466.246094 151.980469 L 462.890625 142.210938 M 459.390625 133.839844 C 460.351563 133.839844 464.859375 133.839844 464.859375 129.042969 C 464.859375 126.011719 463.179688 124.835938 460.207031 124.835938 L 456.753906 124.835938 L 456.753906 133.839844 L 459.390625 133.839844 "/>
    </g>
    <path style=" stroke:none;fill-rule:nonzero;fill:rgb(100%,100%,100%);fill-opacity:1;" d="M 278.355469 59.527344 C 278.355469 38.074219 260.6875 20.683594 238.894531 20.683594 C 217.101563 20.683594 199.433594 38.074219 199.433594 59.527344 C 199.433594 80.980469 217.101563 98.371094 238.894531 98.371094 C 260.6875 98.371094 278.355469 80.980469 278.355469 59.527344 "/>
    <path style=" stroke:none;fill-rule:nonzero;fill:rgb(100%,100%,100%);fill-opacity:1;" d="M 211.40625 2.460938 C 198.519531 8.484375 188.003906 18.617188 181.589844 31.140625 L 194.792969 40.382813 C 196.675781 36.191406 199.160156 32.324219 202.132813 28.875 L 206.648438 33.386719 C 209.121094 30.433594 212.015625 27.828125 215.226563 25.648438 L 210.289063 21.363281 C 213.882813 18.75 217.847656 16.605469 222.105469 15.046875 L 211.40625 2.460938 "/>
    <path style=" stroke:none;fill-rule:nonzero;fill:rgb(100%,100%,100%);fill-opacity:1;" d="M 202.824219 80.257813 L 189.703125 91.921875 C 189.703125 91.921875 187.085938 93.882813 188.613281 96.71875 C 190.140625 99.554688 192.539063 101.953125 195.375 103.917969 C 198.210938 105.878906 199.738281 103.480469 199.738281 103.480469 L 212.238281 91.183594 C 208.488281 88.121094 205.300781 84.421875 202.824219 80.257813 "/>
    <path style=" stroke:none;fill-rule:nonzero;fill:rgb(100%,100%,100%);fill-opacity:1;" d="M 288.953125 91.484375 C 286.746094 89.617188 278.863281 82.464844 275.472656 79.386719 C 273.085938 83.636719 269.953125 87.417969 266.257813 90.578125 L 279.355469 103.261719 C 279.355469 103.261719 282.628906 105.226563 286.773438 100.425781 C 290.917969 95.628906 291.789063 93.882813 288.953125 91.484375 "/>
    <path style=" stroke:none;fill-rule:nonzero;fill:rgb(100%,100%,100%);fill-opacity:1;" d="M 270.960938 33.183594 C 271.644531 32.53125 272.570313 31.648438 273.632813 30.632813 L 280.445313 37.824219 L 294.84375 41.96875 L 291.570313 28.226563 L 284.027344 20.679688 C 284.609375 20.117188 285.039063 19.703125 285.246094 19.5 C 287.128906 17.640625 284.738281 15.777344 281.324219 12.367188 C 279.441406 10.484375 277.613281 12.519531 277.613281 12.519531 L 276.695313 13.347656 L 267.140625 3.796875 L 256.890625 12.957031 L 266.21875 22.804688 L 262.847656 25.851563 C 265.867188 27.9375 268.597656 30.402344 270.960938 33.183594 "/>
    <path style=" stroke:none;fill-rule:nonzero;fill:rgb(0%,16.862488%,36.077881%);fill-opacity:1;" d="M 231.988281 23.003906 C 231.90625 23.003906 231.839844 23.070313 231.839844 23.152344 C 231.839844 23.234375 231.90625 23.300781 231.988281 23.300781 L 245.773438 23.300781 C 245.855469 23.300781 245.921875 23.234375 245.921875 23.152344 C 245.921875 23.070313 245.855469 23.003906 245.773438 23.003906 L 231.988281 23.003906 "/>
    <path style=" stroke:none;fill-rule:nonzero;fill:rgb(0%,16.862488%,36.077881%);fill-opacity:1;" d="M 224.621094 25.140625 C 224.539063 25.140625 224.472656 25.210938 224.472656 25.292969 C 224.472656 25.375 224.539063 25.441406 224.621094 25.441406 L 253.152344 25.441406 C 253.234375 25.441406 253.300781 25.375 253.300781 25.292969 C 253.300781 25.210938 253.234375 25.140625 253.152344 25.140625 L 224.621094 25.140625 "/>
    <path style=" stroke:none;fill-rule:nonzero;fill:rgb(0%,16.862488%,36.077881%);fill-opacity:1;" d="M 220.171875 27.28125 C 220.085938 27.28125 220.019531 27.347656 220.019531 27.429688 C 220.019531 27.515625 220.085938 27.582031 220.171875 27.582031 L 257.589844 27.582031 C 257.671875 27.582031 257.742188 27.515625 257.742188 27.429688 C 257.742188 27.347656 257.671875 27.28125 257.589844 27.28125 L 220.171875 27.28125 "/>
    <path style=" stroke:none;fill-rule:nonzero;fill:rgb(0%,16.862488%,36.077881%);fill-opacity:1;" d="M 216.824219 29.421875 C 216.742188 29.421875 216.675781 29.488281 216.675781 29.570313 C 216.675781 29.652344 216.742188 29.722656 216.824219 29.722656 L 260.945313 29.722656 C 261.03125 29.722656 261.097656 29.652344 261.097656 29.570313 C 261.097656 29.488281 261.03125 29.421875 260.945313 29.421875 L 216.824219 29.421875 "/>
    <path style=" stroke:none;fill-rule:nonzero;fill:rgb(0%,16.862488%,36.077881%);fill-opacity:1;" d="M 214.113281 31.5625 C 214.03125 31.5625 213.964844 31.628906 213.964844 31.710938 C 213.964844 31.792969 214.03125 31.859375 214.113281 31.859375 L 263.648438 31.859375 C 263.734375 31.859375 263.800781 31.792969 263.800781 31.710938 C 263.800781 31.628906 263.734375 31.5625 263.648438 31.5625 L 214.113281 31.5625 "/>
    <path style=" stroke:none;fill-rule:nonzero;fill:rgb(0%,16.862488%,36.077881%);fill-opacity:1;" d="M 211.828125 33.699219 C 211.746094 33.699219 211.679688 33.765625 211.679688 33.851563 C 211.679688 33.933594 211.746094 34 211.828125 34 L 265.929688 34 C 266.011719 34 266.078125 33.933594 266.078125 33.851563 C 266.078125 33.765625 266.011719 33.699219 265.929688 33.699219 L 211.828125 33.699219 "/>
    <path style=" stroke:none;fill-rule:nonzero;fill:rgb(0%,16.862488%,36.077881%);fill-opacity:1;" d="M 209.890625 35.839844 C 209.808594 35.839844 209.742188 35.90625 209.742188 35.992188 C 209.742188 36.074219 209.808594 36.140625 209.890625 36.140625 L 267.882813 36.140625 C 267.964844 36.140625 268.03125 36.074219 268.03125 35.992188 C 268.03125 35.90625 267.964844 35.839844 267.882813 35.839844 L 209.890625 35.839844 "/>
    <path style=" stroke:none;fill-rule:nonzero;fill:rgb(0%,16.862488%,36.077881%);fill-opacity:1;" d="M 208.21875 37.980469 C 208.136719 37.980469 208.070313 38.046875 208.070313 38.128906 C 208.070313 38.214844 208.136719 38.277344 208.21875 38.277344 L 269.539063 38.277344 C 269.621094 38.277344 269.691406 38.214844 269.691406 38.128906 C 269.691406 38.046875 269.621094 37.980469 269.539063 37.980469 L 208.21875 37.980469 "/>
    <path style=" stroke:none;fill-rule:nonzero;fill:rgb(0%,16.862488%,36.077881%);fill-opacity:1;" d="M 206.796875 40.121094 C 206.710938 40.121094 206.644531 40.1875 206.644531 40.269531 C 206.644531 40.351563 206.710938 40.421875 206.796875 40.421875 L 270.980469 40.421875 C 271.0625 40.421875 271.128906 40.351563 271.128906 40.269531 C 271.128906 40.1875 271.0625 40.121094 270.980469 40.121094 L 206.796875 40.121094 "/>
    <path style=" stroke:none;fill-rule:nonzero;fill:rgb(0%,16.862488%,36.077881%);fill-opacity:1;" d="M 205.574219 42.257813 C 205.492188 42.257813 205.425781 42.324219 205.425781 42.410156 C 205.425781 42.492188 205.492188 42.558594 205.574219 42.558594 L 272.214844 42.558594 C 272.296875 42.558594 272.363281 42.492188 272.363281 42.410156 C 272.363281 42.324219 272.296875 42.257813 272.214844 42.257813 L 205.574219 42.257813 "/>
    <path style=" stroke:none;fill-rule:nonzero;fill:rgb(0%,16.862488%,36.077881%);fill-opacity:1;" d="M 204.523438 44.398438 C 204.441406 44.398438 204.371094 44.464844 204.371094 44.550781 C 204.371094 44.632813 204.441406 44.699219 204.523438 44.699219 L 273.265625 44.699219 C 273.347656 44.699219 273.414063 44.632813 273.414063 44.550781 C 273.414063 44.464844 273.347656 44.398438 273.265625 44.398438 L 204.523438 44.398438 "/>
    <path style=" stroke:none;fill-rule:nonzero;fill:rgb(0%,16.862488%,36.077881%);fill-opacity:1;" d="M 203.636719 46.539063 C 203.554688 46.539063 203.488281 46.605469 203.488281 46.6875 C 203.488281 46.769531 203.554688 46.839844 203.636719 46.839844 L 274.144531 46.839844 C 274.226563 46.839844 274.292969 46.769531 274.292969 46.6875 C 274.292969 46.605469 274.226563 46.539063 274.144531 46.539063 L 203.636719 46.539063 "/>
    <path style=" stroke:none;fill-rule:nonzero;fill:rgb(0%,16.862488%,36.077881%);fill-opacity:1;" d="M 202.902344 48.679688 C 202.820313 48.679688 202.753906 48.746094 202.753906 48.828125 C 202.753906 48.910156 202.820313 48.980469 202.902344 48.980469 L 274.878906 48.980469 C 274.960938 48.980469 275.027344 48.910156 275.027344 48.828125 C 275.027344 48.746094 274.960938 48.679688 274.878906 48.679688 L 202.902344 48.679688 "/>
    <path style=" stroke:none;fill-rule:nonzero;fill:rgb(0%,16.862488%,36.077881%);fill-opacity:1;" d="M 202.320313 50.816406 C 202.238281 50.816406 202.171875 50.886719 202.171875 50.96875 C 202.171875 51.050781 202.238281 51.117188 202.320313 51.117188 L 275.464844 51.117188 C 275.546875 51.117188 275.613281 51.050781 275.613281 50.96875 C 275.613281 50.886719 275.546875 50.816406 275.464844 50.816406 L 202.320313 50.816406 "/>
    <path style=" stroke:none;fill-rule:nonzero;fill:rgb(0%,16.862488%,36.077881%);fill-opacity:1;" d="M 201.871094 52.957031 C 201.785156 52.957031 201.71875 53.023438 201.71875 53.109375 C 201.71875 53.191406 201.785156 53.257813 201.871094 53.257813 L 275.914063 53.257813 C 275.996094 53.257813 276.0625 53.191406 276.0625 53.109375 C 276.0625 53.023438 275.996094 52.957031 275.914063 52.957031 L 201.871094 52.957031 "/>
    <path style=" stroke:none;fill-rule:nonzero;fill:rgb(0%,16.862488%,36.077881%);fill-opacity:1;" d="M 201.558594 55.097656 C 201.476563 55.097656 201.40625 55.164063 201.40625 55.246094 C 201.40625 55.332031 201.476563 55.398438 201.558594 55.398438 L 276.230469 55.398438 C 276.3125 55.398438 276.378906 55.332031 276.378906 55.246094 C 276.378906 55.164063 276.3125 55.097656 276.230469 55.097656 L 201.558594 55.097656 "/>
    <path style=" stroke:none;fill-rule:nonzero;fill:rgb(0%,16.862488%,36.077881%);fill-opacity:1;" d="M 201.371094 57.238281 C 201.285156 57.238281 201.21875 57.304688 201.21875 57.386719 C 201.21875 57.46875 201.285156 57.535156 201.371094 57.535156 L 276.414063 57.535156 C 276.5 57.535156 276.566406 57.46875 276.566406 57.386719 C 276.566406 57.304688 276.5 57.238281 276.414063 57.238281 L 201.371094 57.238281 "/>
    <path style=" stroke:none;fill-rule:nonzero;fill:rgb(0%,16.862488%,36.077881%);fill-opacity:1;" d="M 201.308594 59.378906 C 201.222656 59.378906 201.15625 59.445313 201.15625 59.527344 C 201.15625 59.609375 201.222656 59.675781 201.308594 59.675781 L 276.480469 59.675781 C 276.5625 59.675781 276.628906 59.609375 276.628906 59.527344 C 276.628906 59.445313 276.5625 59.378906 276.480469 59.378906 L 201.308594 59.378906 "/>
    <path style=" stroke:none;fill-rule:nonzero;fill:rgb(0%,16.862488%,36.077881%);fill-opacity:1;" d="M 201.367188 61.515625 C 201.285156 61.515625 201.21875 61.585938 201.21875 61.667969 C 201.21875 61.75 201.285156 61.816406 201.367188 61.816406 L 276.417969 61.816406 C 276.503906 61.816406 276.570313 61.75 276.570313 61.667969 C 276.570313 61.585938 276.503906 61.515625 276.417969 61.515625 L 201.367188 61.515625 "/>
    <path style=" stroke:none;fill-rule:nonzero;fill:rgb(0%,16.862488%,36.077881%);fill-opacity:1;" d="M 201.554688 63.65625 C 201.472656 63.65625 201.402344 63.722656 201.402344 63.804688 C 201.402344 63.890625 201.472656 63.957031 201.554688 63.957031 L 276.230469 63.957031 C 276.3125 63.957031 276.382813 63.890625 276.382813 63.804688 C 276.382813 63.722656 276.3125 63.65625 276.230469 63.65625 L 201.554688 63.65625 "/>
    <path style=" stroke:none;fill-rule:nonzero;fill:rgb(0%,16.862488%,36.077881%);fill-opacity:1;" d="M 201.867188 65.796875 C 201.785156 65.796875 201.71875 65.863281 201.71875 65.945313 C 201.71875 66.027344 201.785156 66.097656 201.867188 66.097656 L 275.917969 66.097656 C 276 66.097656 276.066406 66.027344 276.066406 65.945313 C 276.066406 65.863281 276 65.796875 275.917969 65.796875 L 201.867188 65.796875 "/>
    <path style=" stroke:none;fill-rule:nonzero;fill:rgb(0%,16.862488%,36.077881%);fill-opacity:1;" d="M 202.316406 67.9375 C 202.234375 67.9375 202.164063 68.003906 202.164063 68.085938 C 202.164063 68.167969 202.234375 68.234375 202.316406 68.234375 L 275.464844 68.234375 C 275.550781 68.234375 275.617188 68.167969 275.617188 68.085938 C 275.617188 68.003906 275.550781 67.9375 275.464844 67.9375 L 202.316406 67.9375 "/>
    <path style=" stroke:none;fill-rule:nonzero;fill:rgb(0%,16.862488%,36.077881%);fill-opacity:1;" d="M 202.898438 70.074219 C 202.816406 70.074219 202.75 70.140625 202.75 70.226563 C 202.75 70.308594 202.816406 70.375 202.898438 70.375 L 274.882813 70.375 C 274.964844 70.375 275.03125 70.308594 275.03125 70.226563 C 275.03125 70.140625 274.964844 70.074219 274.882813 70.074219 L 202.898438 70.074219 "/>
    <path style=" stroke:none;fill-rule:nonzero;fill:rgb(0%,16.862488%,36.077881%);fill-opacity:1;" d="M 203.621094 72.214844 C 203.535156 72.214844 203.46875 72.28125 203.46875 72.363281 C 203.46875 72.449219 203.535156 72.515625 203.621094 72.515625 L 274.160156 72.515625 C 274.242188 72.515625 274.308594 72.449219 274.308594 72.363281 C 274.308594 72.28125 274.242188 72.214844 274.160156 72.214844 L 203.621094 72.214844 "/>
    <path style=" stroke:none;fill-rule:nonzero;fill:rgb(0%,16.862488%,36.077881%);fill-opacity:1;" d="M 204.507813 74.355469 C 204.425781 74.355469 204.359375 74.421875 204.359375 74.507813 C 204.359375 74.589844 204.425781 74.65625 204.507813 74.65625 L 273.269531 74.65625 C 273.351563 74.65625 273.421875 74.589844 273.421875 74.507813 C 273.421875 74.421875 273.351563 74.355469 273.269531 74.355469 L 204.507813 74.355469 "/>
    <path style=" stroke:none;fill-rule:nonzero;fill:rgb(0%,16.862488%,36.077881%);fill-opacity:1;" d="M 205.558594 76.496094 C 205.476563 76.496094 205.410156 76.5625 205.410156 76.644531 C 205.410156 76.726563 205.476563 76.796875 205.558594 76.796875 L 272.21875 76.796875 C 272.300781 76.796875 272.367188 76.726563 272.367188 76.644531 C 272.367188 76.5625 272.300781 76.496094 272.21875 76.496094 L 205.558594 76.496094 "/>
    <path style=" stroke:none;fill-rule:nonzero;fill:rgb(0%,16.862488%,36.077881%);fill-opacity:1;" d="M 206.777344 78.636719 C 206.691406 78.636719 206.628906 78.703125 206.628906 78.785156 C 206.628906 78.867188 206.691406 78.933594 206.777344 78.933594 L 270.996094 78.933594 C 271.078125 78.933594 271.148438 78.867188 271.148438 78.785156 C 271.148438 78.703125 271.078125 78.636719 270.996094 78.636719 L 206.777344 78.636719 "/>
    <path style=" stroke:none;fill-rule:nonzero;fill:rgb(0%,16.862488%,36.077881%);fill-opacity:1;" d="M 208.222656 80.773438 C 208.136719 80.773438 208.070313 80.839844 208.070313 80.925781 C 208.070313 81.007813 208.136719 81.074219 208.222656 81.074219 L 269.550781 81.074219 C 269.636719 81.074219 269.703125 81.007813 269.703125 80.925781 C 269.703125 80.839844 269.636719 80.773438 269.550781 80.773438 L 208.222656 80.773438 "/>
    <path style=" stroke:none;fill-rule:nonzero;fill:rgb(0%,16.862488%,36.077881%);fill-opacity:1;" d="M 209.882813 82.914063 C 209.796875 82.914063 209.730469 82.980469 209.730469 83.0625 C 209.730469 83.148438 209.796875 83.214844 209.882813 83.214844 L 267.890625 83.214844 C 267.976563 83.214844 268.042969 83.148438 268.042969 83.0625 C 268.042969 82.980469 267.976563 82.914063 267.890625 82.914063 L 209.882813 82.914063 "/>
    <path style=" stroke:none;fill-rule:nonzero;fill:rgb(0%,16.862488%,36.077881%);fill-opacity:1;" d="M 211.8125 85.054688 C 211.730469 85.054688 211.664063 85.121094 211.664063 85.203125 C 211.664063 85.285156 211.730469 85.355469 211.8125 85.355469 L 265.941406 85.355469 C 266.027344 85.355469 266.09375 85.285156 266.09375 85.203125 C 266.09375 85.121094 266.027344 85.054688 265.941406 85.054688 L 211.8125 85.054688 "/>
    <path style=" stroke:none;fill-rule:nonzero;fill:rgb(0%,16.862488%,36.077881%);fill-opacity:1;" d="M 214.089844 87.191406 C 214.007813 87.191406 213.9375 87.261719 213.9375 87.34375 C 213.9375 87.425781 214.007813 87.492188 214.089844 87.492188 L 263.664063 87.492188 C 263.746094 87.492188 263.816406 87.425781 263.816406 87.34375 C 263.816406 87.261719 263.746094 87.191406 263.664063 87.191406 L 214.089844 87.191406 "/>
    <path style=" stroke:none;fill-rule:nonzero;fill:rgb(0%,16.862488%,36.077881%);fill-opacity:1;" d="M 216.8125 89.332031 C 216.730469 89.332031 216.664063 89.398438 216.664063 89.484375 C 216.664063 89.566406 216.730469 89.632813 216.8125 89.632813 L 260.945313 89.632813 C 261.027344 89.632813 261.09375 89.566406 261.09375 89.484375 C 261.09375 89.398438 261.027344 89.332031 260.945313 89.332031 L 216.8125 89.332031 "/>
    <path style=" stroke:none;fill-rule:nonzero;fill:rgb(0%,16.862488%,36.077881%);fill-opacity:1;" d="M 220.171875 91.472656 C 220.089844 91.472656 220.023438 91.539063 220.023438 91.621094 C 220.023438 91.707031 220.089844 91.773438 220.171875 91.773438 L 257.589844 91.773438 C 257.671875 91.773438 257.742188 91.707031 257.742188 91.621094 C 257.742188 91.539063 257.671875 91.472656 257.589844 91.472656 L 220.171875 91.472656 "/>
    <path style=" stroke:none;fill-rule:nonzero;fill:rgb(0%,16.862488%,36.077881%);fill-opacity:1;" d="M 224.605469 93.613281 C 224.523438 93.613281 224.457031 93.679688 224.457031 93.761719 C 224.457031 93.84375 224.523438 93.910156 224.605469 93.910156 L 253.152344 93.910156 C 253.234375 93.910156 253.300781 93.84375 253.300781 93.761719 C 253.300781 93.679688 253.234375 93.613281 253.152344 93.613281 L 224.605469 93.613281 "/>
    <path style=" stroke:none;fill-rule:nonzero;fill:rgb(0%,16.862488%,36.077881%);fill-opacity:1;" d="M 231.984375 95.753906 C 231.898438 95.753906 231.835938 95.820313 231.835938 95.902344 C 231.835938 95.984375 231.898438 96.050781 231.984375 96.050781 L 245.773438 96.050781 C 245.855469 96.050781 245.921875 95.984375 245.921875 95.902344 C 245.921875 95.820313 245.855469 95.753906 245.773438 95.753906 L 231.984375 95.753906 "/>
    <path style=" stroke:none;fill-rule:nonzero;fill:rgb(0%,16.862488%,36.077881%);fill-opacity:1;" d="M 202.367188 50.175781 L 202.367188 68.878906 C 202.367188 68.960938 202.433594 69.027344 202.519531 69.027344 C 202.601563 69.027344 202.667969 68.960938 202.667969 68.878906 L 202.667969 50.175781 C 202.667969 50.09375 202.601563 50.027344 202.519531 50.027344 C 202.433594 50.027344 202.367188 50.09375 202.367188 50.175781 "/>
    <path style=" stroke:none;fill-rule:nonzero;fill:rgb(0%,16.862488%,36.077881%);fill-opacity:1;" d="M 204.507813 44.238281 L 204.507813 74.789063 C 204.507813 74.875 204.574219 74.941406 204.65625 74.941406 C 204.742188 74.941406 204.808594 74.875 204.808594 74.789063 L 204.808594 44.238281 C 204.808594 44.152344 204.742188 44.089844 204.65625 44.089844 C 204.574219 44.089844 204.507813 44.152344 204.507813 44.238281 "/>
    <path style=" stroke:none;fill-rule:nonzero;fill:rgb(0%,16.862488%,36.077881%);fill-opacity:1;" d="M 206.648438 40.265625 L 206.648438 78.757813 C 206.648438 78.84375 206.714844 78.910156 206.796875 78.910156 C 206.878906 78.910156 206.945313 78.84375 206.945313 78.757813 L 206.945313 40.265625 C 206.945313 40.183594 206.878906 40.113281 206.796875 40.113281 C 206.714844 40.113281 206.648438 40.183594 206.648438 40.265625 "/>
    <path style=" stroke:none;fill-rule:nonzero;fill:rgb(0%,16.862488%,36.077881%);fill-opacity:1;" d="M 208.785156 37.175781 L 208.785156 81.847656 C 208.785156 81.929688 208.855469 81.996094 208.9375 81.996094 C 209.019531 81.996094 209.085938 81.929688 209.085938 81.847656 L 209.085938 37.175781 C 209.085938 37.089844 209.019531 37.023438 208.9375 37.023438 C 208.855469 37.023438 208.785156 37.089844 208.785156 37.175781 "/>
    <path style=" stroke:none;fill-rule:nonzero;fill:rgb(0%,16.862488%,36.077881%);fill-opacity:1;" d="M 210.925781 34.644531 L 210.925781 84.394531 C 210.925781 84.476563 210.992188 84.542969 211.078125 84.542969 C 211.160156 84.542969 211.226563 84.476563 211.226563 84.394531 L 211.226563 34.644531 C 211.226563 34.5625 211.160156 34.496094 211.078125 34.496094 C 210.992188 34.496094 210.925781 34.5625 210.925781 34.644531 "/>
    <path style=" stroke:none;fill-rule:nonzero;fill:rgb(0%,16.862488%,36.077881%);fill-opacity:1;" d="M 213.066406 32.507813 L 213.066406 86.53125 C 213.066406 86.613281 213.132813 86.683594 213.214844 86.683594 C 213.300781 86.683594 213.367188 86.613281 213.367188 86.53125 L 213.367188 32.507813 C 213.367188 32.425781 213.300781 32.359375 213.214844 32.359375 C 213.132813 32.359375 213.066406 32.425781 213.066406 32.507813 "/>
    <path style=" stroke:none;fill-rule:nonzero;fill:rgb(0%,16.862488%,36.077881%);fill-opacity:1;" d="M 215.207031 30.6875 L 215.207031 88.363281 C 215.207031 88.449219 215.273438 88.515625 215.355469 88.515625 C 215.441406 88.515625 215.507813 88.449219 215.507813 88.363281 L 215.507813 30.6875 C 215.507813 30.605469 215.441406 30.539063 215.355469 30.539063 C 215.273438 30.539063 215.207031 30.605469 215.207031 30.6875 "/>
    <path style=" stroke:none;fill-rule:nonzero;fill:rgb(0%,16.862488%,36.077881%);fill-opacity:1;" d="M 217.347656 29.109375 L 217.347656 89.9375 C 217.347656 90.019531 217.414063 90.085938 217.496094 90.085938 C 217.578125 90.085938 217.644531 90.019531 217.644531 89.9375 L 217.644531 29.109375 C 217.644531 29.023438 217.578125 28.957031 217.496094 28.957031 C 217.414063 28.957031 217.347656 29.023438 217.347656 29.109375 "/>
    <path style=" stroke:none;fill-rule:nonzero;fill:rgb(0%,16.862488%,36.077881%);fill-opacity:1;" d="M 219.484375 27.753906 L 219.484375 91.296875 C 219.484375 91.382813 219.554688 91.445313 219.636719 91.445313 C 219.71875 91.445313 219.785156 91.382813 219.785156 91.296875 L 219.785156 27.753906 C 219.785156 27.671875 219.71875 27.601563 219.636719 27.601563 C 219.554688 27.601563 219.484375 27.671875 219.484375 27.753906 "/>
    <path style=" stroke:none;fill-rule:nonzero;fill:rgb(0%,16.862488%,36.077881%);fill-opacity:1;" d="M 221.625 26.574219 L 221.625 92.464844 C 221.625 92.546875 221.691406 92.613281 221.773438 92.613281 C 221.859375 92.613281 221.925781 92.546875 221.925781 92.464844 L 221.925781 26.574219 C 221.925781 26.492188 221.859375 26.425781 221.773438 26.425781 C 221.691406 26.425781 221.625 26.492188 221.625 26.574219 "/>
    <path style=" stroke:none;fill-rule:nonzero;fill:rgb(0%,16.862488%,36.077881%);fill-opacity:1;" d="M 223.765625 25.585938 L 223.765625 93.460938 C 223.765625 93.542969 223.832031 93.609375 223.914063 93.609375 C 223.996094 93.609375 224.066406 93.542969 224.066406 93.460938 L 224.066406 25.585938 C 224.066406 25.503906 223.996094 25.433594 223.914063 25.433594 C 223.832031 25.433594 223.765625 25.503906 223.765625 25.585938 "/>
    <path style=" stroke:none;fill-rule:nonzero;fill:rgb(0%,16.862488%,36.077881%);fill-opacity:1;" d="M 225.902344 24.746094 L 225.902344 94.304688 C 225.902344 94.386719 225.972656 94.453125 226.054688 94.453125 C 226.136719 94.453125 226.203125 94.386719 226.203125 94.304688 L 226.203125 24.746094 C 226.203125 24.664063 226.136719 24.597656 226.054688 24.597656 C 225.972656 24.597656 225.902344 24.664063 225.902344 24.746094 "/>
    <path style=" stroke:none;fill-rule:nonzero;fill:rgb(0%,16.862488%,36.077881%);fill-opacity:1;" d="M 228.046875 24.050781 L 228.046875 94.996094 C 228.046875 95.082031 228.113281 95.148438 228.195313 95.148438 C 228.277344 95.148438 228.34375 95.082031 228.34375 94.996094 L 228.34375 24.050781 C 228.34375 23.96875 228.277344 23.898438 228.195313 23.898438 C 228.113281 23.898438 228.046875 23.96875 228.046875 24.050781 "/>
    <path style=" stroke:none;fill-rule:nonzero;fill:rgb(0%,16.862488%,36.077881%);fill-opacity:1;" d="M 230.183594 23.488281 L 230.183594 95.558594 C 230.183594 95.640625 230.253906 95.707031 230.335938 95.707031 C 230.417969 95.707031 230.484375 95.640625 230.484375 95.558594 L 230.484375 23.488281 C 230.484375 23.40625 230.417969 23.339844 230.335938 23.339844 C 230.253906 23.339844 230.183594 23.40625 230.183594 23.488281 "/>
    <path style=" stroke:none;fill-rule:nonzero;fill:rgb(0%,16.862488%,36.077881%);fill-opacity:1;" d="M 232.324219 23.066406 L 232.324219 95.984375 C 232.324219 96.066406 232.390625 96.132813 232.472656 96.132813 C 232.558594 96.132813 232.625 96.066406 232.625 95.984375 L 232.625 23.066406 C 232.625 22.984375 232.558594 22.917969 232.472656 22.917969 C 232.390625 22.917969 232.324219 22.984375 232.324219 23.066406 "/>
    <path style=" stroke:none;fill-rule:nonzero;fill:rgb(0%,16.862488%,36.077881%);fill-opacity:1;" d="M 234.464844 22.765625 L 234.464844 96.464844 C 234.464844 96.550781 234.53125 96.617188 234.613281 96.617188 C 234.695313 96.617188 234.765625 96.550781 234.765625 96.464844 L 234.765625 22.765625 C 234.765625 22.683594 234.695313 22.617188 234.613281 22.617188 C 234.53125 22.617188 234.464844 22.683594 234.464844 22.765625 "/>
    <path style=" stroke:none;fill-rule:nonzero;fill:rgb(0%,16.862488%,36.077881%);fill-opacity:1;" d="M 236.605469 22.589844 L 236.605469 96.464844 C 236.605469 96.546875 236.671875 96.613281 236.753906 96.613281 C 236.835938 96.613281 236.902344 96.546875 236.902344 96.464844 L 236.902344 22.589844 C 236.902344 22.507813 236.835938 22.4375 236.753906 22.4375 C 236.671875 22.4375 236.605469 22.507813 236.605469 22.589844 "/>
    <path style=" stroke:none;fill-rule:nonzero;fill:rgb(0%,16.862488%,36.077881%);fill-opacity:1;" d="M 238.742188 22.53125 L 238.742188 96.523438 C 238.742188 96.605469 238.808594 96.675781 238.894531 96.675781 C 238.976563 96.675781 239.042969 96.605469 239.042969 96.523438 L 239.042969 22.53125 C 239.042969 22.445313 238.976563 22.378906 238.894531 22.378906 C 238.808594 22.378906 238.742188 22.445313 238.742188 22.53125 "/>
    <path style=" stroke:none;fill-rule:nonzero;fill:rgb(0%,16.862488%,36.077881%);fill-opacity:1;" d="M 240.882813 22.589844 L 240.882813 96.464844 C 240.882813 96.550781 240.949219 96.617188 241.03125 96.617188 C 241.117188 96.617188 241.183594 96.550781 241.183594 96.464844 L 241.183594 22.589844 C 241.183594 22.507813 241.117188 22.4375 241.03125 22.4375 C 240.949219 22.4375 240.882813 22.507813 240.882813 22.589844 "/>
    <path style=" stroke:none;fill-rule:nonzero;fill:rgb(0%,16.862488%,36.077881%);fill-opacity:1;" d="M 243.023438 22.765625 L 243.023438 96.289063 C 243.023438 96.371094 243.089844 96.4375 243.171875 96.4375 C 243.253906 96.4375 243.324219 96.371094 243.324219 96.289063 L 243.324219 22.765625 C 243.324219 22.683594 243.253906 22.617188 243.171875 22.617188 C 243.089844 22.617188 243.023438 22.683594 243.023438 22.765625 "/>
    <path style=" stroke:none;fill-rule:nonzero;fill:rgb(0%,16.862488%,36.077881%);fill-opacity:1;" d="M 245.160156 23.066406 L 245.160156 95.988281 C 245.160156 96.070313 245.230469 96.136719 245.3125 96.136719 C 245.394531 96.136719 245.464844 96.070313 245.464844 95.988281 L 245.464844 23.066406 C 245.464844 22.984375 245.394531 22.917969 245.3125 22.917969 C 245.230469 22.917969 245.160156 22.984375 245.160156 23.066406 "/>
    <path style=" stroke:none;fill-rule:nonzero;fill:rgb(0%,16.862488%,36.077881%);fill-opacity:1;" d="M 247.300781 23.488281 L 247.300781 95.5625 C 247.300781 95.648438 247.367188 95.714844 247.453125 95.714844 C 247.535156 95.714844 247.601563 95.648438 247.601563 95.5625 L 247.601563 23.488281 C 247.601563 23.40625 247.535156 23.339844 247.453125 23.339844 C 247.367188 23.339844 247.300781 23.40625 247.300781 23.488281 "/>
    <path style=" stroke:none;fill-rule:nonzero;fill:rgb(0%,16.862488%,36.077881%);fill-opacity:1;" d="M 249.441406 24.050781 L 249.441406 95.007813 C 249.441406 95.089844 249.507813 95.15625 249.589844 95.15625 C 249.675781 95.15625 249.742188 95.089844 249.742188 95.007813 L 249.742188 24.050781 C 249.742188 23.96875 249.675781 23.898438 249.589844 23.898438 C 249.507813 23.898438 249.441406 23.96875 249.441406 24.050781 "/>
    <path style=" stroke:none;fill-rule:nonzero;fill:rgb(0%,16.862488%,36.077881%);fill-opacity:1;" d="M 251.578125 24.746094 L 251.578125 94.3125 C 251.578125 94.398438 251.648438 94.464844 251.730469 94.464844 C 251.8125 94.464844 251.882813 94.398438 251.882813 94.3125 L 251.882813 24.746094 C 251.882813 24.664063 251.8125 24.597656 251.730469 24.597656 C 251.648438 24.597656 251.578125 24.664063 251.578125 24.746094 "/>
    <path style=" stroke:none;fill-rule:nonzero;fill:rgb(0%,16.862488%,36.077881%);fill-opacity:1;" d="M 253.722656 25.585938 L 253.722656 93.472656 C 253.722656 93.558594 253.789063 93.625 253.871094 93.625 C 253.953125 93.625 254.023438 93.558594 254.023438 93.472656 L 254.023438 25.585938 C 254.023438 25.503906 253.953125 25.433594 253.871094 25.433594 C 253.789063 25.433594 253.722656 25.503906 253.722656 25.585938 "/>
    <path style=" stroke:none;fill-rule:nonzero;fill:rgb(0%,16.862488%,36.077881%);fill-opacity:1;" d="M 255.859375 26.574219 L 255.859375 92.476563 C 255.859375 92.5625 255.929688 92.628906 256.011719 92.628906 C 256.09375 92.628906 256.160156 92.5625 256.160156 92.476563 L 256.160156 26.574219 C 256.160156 26.492188 256.09375 26.425781 256.011719 26.425781 C 255.929688 26.425781 255.859375 26.492188 255.859375 26.574219 "/>
    <path style=" stroke:none;fill-rule:nonzero;fill:rgb(0%,16.862488%,36.077881%);fill-opacity:1;" d="M 258 27.753906 L 258 91.3125 C 258 91.394531 258.066406 91.460938 258.152344 91.460938 C 258.234375 91.460938 258.300781 91.394531 258.300781 91.3125 L 258.300781 27.753906 C 258.300781 27.671875 258.234375 27.601563 258.152344 27.601563 C 258.066406 27.601563 258 27.671875 258 27.753906 "/>
    <path style=" stroke:none;fill-rule:nonzero;fill:rgb(0%,16.862488%,36.077881%);fill-opacity:1;" d="M 260.140625 29.109375 L 260.140625 89.953125 C 260.140625 90.035156 260.207031 90.105469 260.289063 90.105469 C 260.371094 90.105469 260.441406 90.035156 260.441406 89.953125 L 260.441406 29.109375 C 260.441406 29.023438 260.371094 28.957031 260.289063 28.957031 C 260.207031 28.957031 260.140625 29.023438 260.140625 29.109375 "/>
    <path style=" stroke:none;fill-rule:nonzero;fill:rgb(0%,16.862488%,36.077881%);fill-opacity:1;" d="M 262.28125 30.6875 L 262.28125 88.378906 C 262.28125 88.460938 262.347656 88.527344 262.429688 88.527344 C 262.511719 88.527344 262.578125 88.460938 262.578125 88.378906 L 262.578125 30.6875 C 262.578125 30.605469 262.511719 30.539063 262.429688 30.539063 C 262.347656 30.539063 262.28125 30.605469 262.28125 30.6875 "/>
    <path style=" stroke:none;fill-rule:nonzero;fill:rgb(0%,16.862488%,36.077881%);fill-opacity:1;" d="M 264.421875 32.507813 L 264.421875 86.554688 C 264.421875 86.636719 264.488281 86.703125 264.570313 86.703125 C 264.652344 86.703125 264.71875 86.636719 264.71875 86.554688 L 264.71875 32.507813 C 264.71875 32.425781 264.652344 32.359375 264.570313 32.359375 C 264.488281 32.359375 264.421875 32.425781 264.421875 32.507813 "/>
    <path style=" stroke:none;fill-rule:nonzero;fill:rgb(0%,16.862488%,36.077881%);fill-opacity:1;" d="M 266.558594 34.644531 L 266.558594 84.40625 C 266.558594 84.492188 266.628906 84.558594 266.710938 84.558594 C 266.792969 84.558594 266.859375 84.492188 266.859375 84.40625 L 266.859375 34.644531 C 266.859375 34.5625 266.792969 34.496094 266.710938 34.496094 C 266.628906 34.496094 266.558594 34.5625 266.558594 34.644531 "/>
    <path style=" stroke:none;fill-rule:nonzero;fill:rgb(0%,16.862488%,36.077881%);fill-opacity:1;" d="M 268.699219 37.175781 L 268.699219 81.863281 C 268.699219 81.945313 268.765625 82.015625 268.847656 82.015625 C 268.933594 82.015625 269 81.945313 269 81.863281 L 269 37.175781 C 269 37.089844 268.933594 37.023438 268.847656 37.023438 C 268.765625 37.023438 268.699219 37.089844 268.699219 37.175781 "/>
    <path style=" stroke:none;fill-rule:nonzero;fill:rgb(0%,16.862488%,36.077881%);fill-opacity:1;" d="M 270.839844 40.265625 L 270.839844 78.773438 C 270.839844 78.859375 270.90625 78.925781 270.988281 78.925781 C 271.070313 78.925781 271.140625 78.859375 271.140625 78.773438 L 271.140625 40.265625 C 271.140625 40.183594 271.070313 40.113281 270.988281 40.113281 C 270.90625 40.113281 270.839844 40.183594 270.839844 40.265625 "/>
    <path style=" stroke:none;fill-rule:nonzero;fill:rgb(0%,16.862488%,36.077881%);fill-opacity:1;" d="M 272.976563 44.238281 L 272.976563 74.808594 C 272.976563 74.890625 273.046875 74.960938 273.128906 74.960938 C 273.210938 74.960938 273.277344 74.890625 273.277344 74.808594 L 273.277344 44.238281 C 273.277344 44.152344 273.210938 44.089844 273.128906 44.089844 C 273.046875 44.089844 272.976563 44.152344 272.976563 44.238281 "/>
    <path style=" stroke:none;fill-rule:nonzero;fill:rgb(0%,16.862488%,36.077881%);fill-opacity:1;" d="M 275.117188 50.175781 L 275.117188 68.878906 C 275.117188 68.960938 275.183594 69.027344 275.269531 69.027344 C 275.351563 69.027344 275.417969 68.960938 275.417969 68.878906 L 275.417969 50.175781 C 275.417969 50.09375 275.351563 50.027344 275.269531 50.027344 C 275.183594 50.027344 275.117188 50.09375 275.117188 50.175781 "/>
    <path style=" stroke:none;fill-rule:nonzero;fill:rgb(0%,16.862488%,36.077881%);fill-opacity:1;" d="M 248.78125 37.492188 L 248.78125 30.679688 L 243.257813 36.789063 L 239.613281 27.859375 L 235.96875 36.789063 L 230.441406 30.679688 L 230.441406 37.492188 L 222.675781 33.257813 L 228.851563 45.136719 C 228.851563 45.136719 230.238281 48.195313 239.613281 48.195313 C 248.984375 48.195313 250.371094 45.136719 250.371094 45.136719 L 256.546875 33.257813 L 248.78125 37.492188 "/>
    <path style=" stroke:none;fill-rule:nonzero;fill:rgb(100%,100%,100%);fill-opacity:1;" d="M 247.363281 41.035156 L 247.363281 34.222656 L 242.546875 40.328125 L 239.613281 31.402344 L 236.675781 40.328125 L 231.859375 34.222656 L 231.859375 41.035156 L 226.925781 37.511719 L 229.972656 43.972656 C 232.753906 43.230469 236.058594 42.796875 239.613281 42.796875 C 243.164063 42.796875 246.46875 43.230469 249.25 43.972656 L 252.296875 37.511719 L 247.363281 41.035156 "/>
    <path style=" stroke:none;fill-rule:nonzero;fill:rgb(100%,100%,100%);fill-opacity:1;" d="M 230.539063 45.339844 C 233.085938 46.351563 236.214844 46.957031 239.613281 46.957031 C 243.011719 46.957031 246.140625 46.351563 248.683594 45.339844 C 246.09375 44.441406 242.972656 43.914063 239.613281 43.914063 C 236.253906 43.914063 233.128906 44.441406 230.539063 45.339844 "/>
    <path style=" stroke:none;fill-rule:nonzero;fill:rgb(0%,16.862488%,36.077881%);fill-opacity:1;" d="M 259.777344 66.023438 C 261.046875 64.6875 262.125 62.476563 262.125 58.738281 C 262.125 52.769531 256.738281 50.097656 251.398438 50.097656 L 233.214844 50.097656 L 233.214844 57.976563 C 233.214844 57.976563 235.613281 57.976563 236.230469 57.976563 C 236.230469 59.4375 236.230469 60.640625 236.230469 62.097656 C 234.34375 62.097656 231.546875 62.097656 229.65625 62.097656 C 229.65625 60.640625 229.65625 59.4375 229.65625 57.976563 C 230.101563 57.976563 232.375 57.976563 232.375 57.976563 L 232.375 50.097656 L 216.347656 50.097656 L 216.347656 57.976563 C 216.347656 57.976563 218.179688 57.976563 218.1875 57.976563 C 218.1875 60.703125 218.1875 74.265625 218.1875 76.992188 C 218.179688 76.992188 216.347656 76.992188 216.347656 76.992188 L 216.347656 84.871094 L 232.375 84.871094 L 232.375 76.992188 C 232.375 76.992188 230.101563 76.992188 229.65625 76.992188 C 229.65625 75.046875 229.65625 71.925781 229.65625 69.980469 C 231.546875 69.980469 234.34375 69.980469 236.230469 69.980469 C 236.230469 71.925781 236.230469 75.046875 236.230469 76.992188 C 235.613281 76.992188 233.214844 76.992188 233.214844 76.992188 L 233.214844 84.871094 L 252.453125 84.871094 C 259.390625 84.871094 263.875 80.578125 263.875 73.9375 C 263.875 70.503906 262.335938 67.644531 259.777344 66.023438 M 247.519531 69.90625 C 247.910156 69.90625 248.398438 69.90625 248.398438 69.90625 C 253.222656 69.90625 253.222656 72.5 253.222656 73.605469 C 253.222656 74.445313 253.222656 76.992188 249.519531 76.992188 C 249.519531 76.992188 248.515625 76.992188 247.519531 76.992188 C 247.519531 75.035156 247.519531 71.863281 247.519531 69.90625 M 248.824219 62.1875 C 248.824219 62.1875 248.277344 62.1875 247.800781 62.1875 C 247.800781 60.804688 247.800781 59.785156 247.800781 58.402344 C 247.882813 58.402344 248.117188 58.402344 248.117188 58.402344 C 251.816406 58.402344 251.816406 59.398438 251.816406 60.058594 C 251.816406 61.496094 251.6875 62.1875 248.824219 62.1875 "/>
    <path style=" stroke:none;fill-rule:nonzero;fill:rgb(100%,100%,100%);fill-opacity:1;" d="M 256.460938 66.535156 C 256.238281 66.488281 256.296875 66.179688 256.511719 66.109375 C 259.28125 65.21875 260.375 62.355469 260.375 58.738281 C 260.375 53.972656 255.933594 51.847656 251.398438 51.847656 L 234.964844 51.847656 L 234.964844 56.226563 L 237.980469 56.226563 L 237.980469 63.847656 L 227.90625 63.847656 L 227.90625 56.226563 L 230.625 56.226563 L 230.625 51.847656 L 218.097656 51.847656 L 218.097656 56.226563 L 219.9375 56.226563 L 219.9375 78.742188 L 218.097656 78.742188 L 218.097656 83.121094 L 230.625 83.121094 L 230.625 78.742188 L 227.90625 78.742188 L 227.90625 68.230469 L 237.980469 68.230469 L 237.980469 78.742188 L 234.964844 78.742188 L 234.964844 83.121094 L 252.453125 83.121094 C 257.632813 83.121094 262.125 80.402344 262.125 73.9375 C 262.125 70.019531 259.742188 67.25 256.460938 66.535156 M 246.050781 56.652344 L 248.117188 56.652344 C 250.976563 56.652344 253.566406 57.199219 253.566406 60.058594 C 253.566406 63.035156 251.996094 63.9375 248.824219 63.9375 L 246.050781 63.9375 L 246.050781 56.652344 M 249.519531 78.742188 L 245.769531 78.742188 L 245.769531 68.15625 L 248.398438 68.15625 C 252.101563 68.15625 254.972656 69.585938 254.972656 73.605469 C 254.972656 77.152344 252.671875 78.742188 249.519531 78.742188 "/>
  </g>
</svg>